<mxfile host="app.diagrams.net" modified="2022-05-17T17:04:47.224Z" agent="5.0 (Windows)" etag="98kzHHqMlY4-6NP5_7dt" version="18.0.6" type="github">
  <diagram id="HXFEhjrMLbCV9gAbWQhC" name="Page-1">
    <mxGraphModel dx="1320" dy="627" grid="1" gridSize="10" guides="1" tooltips="1" connect="1" arrows="1" fold="1" page="1" pageScale="1" pageWidth="827" pageHeight="1169" math="0" shadow="0">
      <root>
        <mxCell id="0" />
        <mxCell id="1" parent="0" />
        <mxCell id="BGpOXGxUT94xlGYrzpRG-1" value="User" style="swimlane;fontStyle=1;align=center;verticalAlign=top;childLayout=stackLayout;horizontal=1;startSize=26;horizontalStack=0;resizeParent=1;resizeParentMax=0;resizeLast=0;collapsible=1;marginBottom=0;strokeWidth=1;spacingTop=0;fontSize=12;strokeColor=#6c8ebf;fillColor=#dae8fc;" vertex="1" parent="1">
          <mxGeometry x="611" y="50" width="160" height="260" as="geometry" />
        </mxCell>
        <mxCell id="BGpOXGxUT94xlGYrzpRG-2" value="- userID : String&#xa;- firstName : String&#xa;- lastName : String&#xa;- age : int&#xa;- sex : String&#xa;- email : String&#xa;- address : String&#xa;- role : String&#xa;- phoneNumber : String&#xa;- username : String&#xa;- password : String" style="text;strokeColor=#6C8EBF;fillColor=none;align=left;verticalAlign=top;spacingLeft=4;spacingRight=4;overflow=hidden;rotatable=0;points=[[0,0.5],[1,0.5]];portConstraint=eastwest;strokeWidth=1;spacingTop=0;fontSize=12;" vertex="1" parent="BGpOXGxUT94xlGYrzpRG-1">
          <mxGeometry y="26" width="160" height="174" as="geometry" />
        </mxCell>
        <mxCell id="BGpOXGxUT94xlGYrzpRG-3" value="+ login() : void&#xa;+ getter() : getType&#xa;+ setter() : void" style="text;strokeColor=#6C8EBF;fillColor=none;align=left;verticalAlign=top;spacingLeft=4;spacingRight=4;overflow=hidden;rotatable=0;points=[[0,0.5],[1,0.5]];portConstraint=eastwest;strokeWidth=1;spacingTop=0;fontSize=12;" vertex="1" parent="BGpOXGxUT94xlGYrzpRG-1">
          <mxGeometry y="200" width="160" height="60" as="geometry" />
        </mxCell>
        <mxCell id="BGpOXGxUT94xlGYrzpRG-4" value="Result" style="swimlane;fontStyle=1;align=center;verticalAlign=top;childLayout=stackLayout;horizontal=1;startSize=26;horizontalStack=0;resizeParent=1;resizeParentMax=0;resizeLast=0;collapsible=1;marginBottom=0;strokeWidth=1;spacingTop=0;fontSize=12;strokeColor=#6c8ebf;fillColor=#dae8fc;" vertex="1" parent="1">
          <mxGeometry x="30" y="850" width="134" height="174" as="geometry" />
        </mxCell>
        <mxCell id="BGpOXGxUT94xlGYrzpRG-5" value="- testType : String&#xa;- finding : String&#xa;- senderName : String&#xa;- date : Date" style="text;strokeColor=#6C8EBF;fillColor=none;align=left;verticalAlign=top;spacingLeft=4;spacingRight=4;overflow=hidden;rotatable=0;points=[[0,0.5],[1,0.5]];portConstraint=eastwest;strokeWidth=1;spacingTop=0;fontSize=12;" vertex="1" parent="BGpOXGxUT94xlGYrzpRG-4">
          <mxGeometry y="26" width="134" height="101" as="geometry" />
        </mxCell>
        <mxCell id="BGpOXGxUT94xlGYrzpRG-6" value="+ getter() : String&#xa;+ setter() : void" style="text;strokeColor=#6C8EBF;fillColor=none;align=left;verticalAlign=top;spacingLeft=4;spacingRight=4;overflow=hidden;rotatable=0;points=[[0,0.5],[1,0.5]];portConstraint=eastwest;strokeWidth=1;spacingTop=0;fontSize=12;" vertex="1" parent="BGpOXGxUT94xlGYrzpRG-4">
          <mxGeometry y="127" width="134" height="47" as="geometry" />
        </mxCell>
        <mxCell id="BGpOXGxUT94xlGYrzpRG-7" value="Request" style="swimlane;fontStyle=1;align=center;verticalAlign=top;childLayout=stackLayout;horizontal=1;startSize=26;horizontalStack=0;resizeParent=1;resizeParentMax=0;resizeLast=0;collapsible=1;marginBottom=0;strokeWidth=1;spacingTop=0;fontSize=12;strokeColor=#6c8ebf;fillColor=#dae8fc;" vertex="1" parent="1">
          <mxGeometry x="183" y="850" width="133" height="174" as="geometry" />
        </mxCell>
        <mxCell id="BGpOXGxUT94xlGYrzpRG-8" value="- requestType : String&#xa;- senderName : String&#xa;- requestCase : String&#xa;- date : Date" style="text;strokeColor=#6C8EBF;fillColor=none;align=left;verticalAlign=top;spacingLeft=4;spacingRight=4;overflow=hidden;rotatable=0;points=[[0,0.5],[1,0.5]];portConstraint=eastwest;strokeWidth=1;spacingTop=0;fontSize=12;" vertex="1" parent="BGpOXGxUT94xlGYrzpRG-7">
          <mxGeometry y="26" width="133" height="101" as="geometry" />
        </mxCell>
        <mxCell id="BGpOXGxUT94xlGYrzpRG-9" value="+ getter() : String&#xa;+ setter() : void" style="text;strokeColor=#6C8EBF;fillColor=none;align=left;verticalAlign=top;spacingLeft=4;spacingRight=4;overflow=hidden;rotatable=0;points=[[0,0.5],[1,0.5]];portConstraint=eastwest;strokeWidth=1;spacingTop=0;fontSize=12;" vertex="1" parent="BGpOXGxUT94xlGYrzpRG-7">
          <mxGeometry y="127" width="133" height="47" as="geometry" />
        </mxCell>
        <mxCell id="BGpOXGxUT94xlGYrzpRG-10" value="Prescription" style="swimlane;fontStyle=1;align=center;verticalAlign=top;childLayout=stackLayout;horizontal=1;startSize=26;horizontalStack=0;resizeParent=1;resizeParentMax=0;resizeLast=0;collapsible=1;marginBottom=0;strokeWidth=1;spacingTop=0;fontSize=12;strokeColor=#6c8ebf;fillColor=#dae8fc;" vertex="1" parent="1">
          <mxGeometry x="324" y="850" width="144" height="183" as="geometry" />
        </mxCell>
        <mxCell id="BGpOXGxUT94xlGYrzpRG-11" value="- drugName : String&#xa;- method : String&#xa;- dose : Double&#xa;- presciberName : String&#xa;- date : Date&#xa;" style="text;strokeColor=#6C8EBF;fillColor=none;align=left;verticalAlign=top;spacingLeft=4;spacingRight=4;overflow=hidden;rotatable=0;points=[[0,0.5],[1,0.5]];portConstraint=eastwest;strokeWidth=1;spacingTop=0;fontSize=12;" vertex="1" parent="BGpOXGxUT94xlGYrzpRG-10">
          <mxGeometry y="26" width="144" height="110" as="geometry" />
        </mxCell>
        <mxCell id="BGpOXGxUT94xlGYrzpRG-12" value="+ getter() : String&#xa;+ setter() : void" style="text;strokeColor=#6C8EBF;fillColor=none;align=left;verticalAlign=top;spacingLeft=4;spacingRight=4;overflow=hidden;rotatable=0;points=[[0,0.5],[1,0.5]];portConstraint=eastwest;strokeWidth=1;spacingTop=0;fontSize=12;" vertex="1" parent="BGpOXGxUT94xlGYrzpRG-10">
          <mxGeometry y="136" width="144" height="47" as="geometry" />
        </mxCell>
        <mxCell id="BGpOXGxUT94xlGYrzpRG-13" value="Report" style="swimlane;fontStyle=1;align=center;verticalAlign=top;childLayout=stackLayout;horizontal=1;startSize=26;horizontalStack=0;resizeParent=1;resizeParentMax=0;resizeLast=0;collapsible=1;marginBottom=0;strokeWidth=1;spacingTop=0;fontSize=12;strokeColor=#6c8ebf;fillColor=#dae8fc;" vertex="1" parent="1">
          <mxGeometry x="622" y="850" width="137" height="180" as="geometry" />
        </mxCell>
        <mxCell id="BGpOXGxUT94xlGYrzpRG-14" value="- reportID : String&#xa;- reportType: String&#xa;- date : Date" style="text;strokeColor=#6C8EBF;fillColor=none;align=left;verticalAlign=top;spacingLeft=4;spacingRight=4;overflow=hidden;rotatable=0;points=[[0,0.5],[1,0.5]];portConstraint=eastwest;strokeWidth=1;spacingTop=0;fontSize=12;" vertex="1" parent="BGpOXGxUT94xlGYrzpRG-13">
          <mxGeometry y="26" width="137" height="71" as="geometry" />
        </mxCell>
        <mxCell id="BGpOXGxUT94xlGYrzpRG-15" value="+ getter() : String&#xa;+ setter() : void" style="text;strokeColor=#6C8EBF;fillColor=none;align=left;verticalAlign=top;spacingLeft=4;spacingRight=4;overflow=hidden;rotatable=0;points=[[0,0.5],[1,0.5]];portConstraint=eastwest;strokeWidth=1;spacingTop=0;fontSize=12;" vertex="1" parent="BGpOXGxUT94xlGYrzpRG-13">
          <mxGeometry y="97" width="137" height="83" as="geometry" />
        </mxCell>
        <mxCell id="BGpOXGxUT94xlGYrzpRG-16" value="Client" style="swimlane;fontStyle=1;align=center;verticalAlign=top;childLayout=stackLayout;horizontal=1;startSize=26;horizontalStack=0;resizeParent=1;resizeParentMax=0;resizeLast=0;collapsible=1;marginBottom=0;strokeWidth=1;spacingTop=0;fontSize=12;strokeColor=#6c8ebf;fillColor=#dae8fc;" vertex="1" parent="1">
          <mxGeometry x="300" y="271" width="140" height="260" as="geometry" />
        </mxCell>
        <mxCell id="BGpOXGxUT94xlGYrzpRG-17" value="- MRN : String&#xa;- date : Date&#xa;- ANCReg.No. : String&#xa;- facilityName : String&#xa;- houseNo. : String&#xa;- martialStatus : String&#xa;- gravidity : int&#xa;- parity : int&#xa;- No.OfChildren : int&#xa;- LMP : Date&#xa;- EDD : Date&#xa;- gestAge : Date&#xa;" style="text;strokeColor=#6C8EBF;fillColor=none;align=left;verticalAlign=top;spacingLeft=4;spacingRight=4;overflow=hidden;rotatable=0;points=[[0,0.5],[1,0.5]];portConstraint=eastwest;strokeWidth=1;spacingTop=0;fontSize=12;" vertex="1" parent="BGpOXGxUT94xlGYrzpRG-16">
          <mxGeometry y="26" width="140" height="178" as="geometry" />
        </mxCell>
        <mxCell id="BGpOXGxUT94xlGYrzpRG-18" value="+ login() : void&#xa;+ view() : void&#xa;+ sendFeedback() : void" style="text;strokeColor=#6C8EBF;fillColor=none;align=left;verticalAlign=top;spacingLeft=4;spacingRight=4;overflow=hidden;rotatable=0;points=[[0,0.5],[1,0.5]];portConstraint=eastwest;strokeWidth=1;spacingTop=0;fontSize=12;" vertex="1" parent="BGpOXGxUT94xlGYrzpRG-16">
          <mxGeometry y="204" width="140" height="56" as="geometry" />
        </mxCell>
        <mxCell id="BGpOXGxUT94xlGYrzpRG-19" value="ANCVisits" style="swimlane;fontStyle=1;align=center;verticalAlign=top;childLayout=stackLayout;horizontal=1;startSize=26;horizontalStack=0;resizeParent=1;resizeParentMax=0;resizeLast=0;collapsible=1;marginBottom=0;strokeWidth=1;spacingTop=0;fontSize=12;strokeColor=#6c8ebf;fillColor=#dae8fc;" vertex="1" parent="1">
          <mxGeometry x="270" y="49" width="140" height="150" as="geometry" />
        </mxCell>
        <mxCell id="BGpOXGxUT94xlGYrzpRG-20" value="- date : Date&#xa;- anemia : String&#xa;- fetal-heartbeat : String&#xa;- presentation : String&#xa;- BP : String&#xa;- hemoglobin : String&#xa;- blood-group : String&#xa;- tuberculosis : String" style="text;strokeColor=#6C8EBF;fillColor=none;align=left;verticalAlign=top;spacingLeft=4;spacingRight=4;overflow=hidden;rotatable=0;points=[[0,0.5],[1,0.5]];portConstraint=eastwest;strokeWidth=1;spacingTop=0;fontSize=12;" vertex="1" parent="BGpOXGxUT94xlGYrzpRG-19">
          <mxGeometry y="26" width="140" height="124" as="geometry" />
        </mxCell>
        <mxCell id="BGpOXGxUT94xlGYrzpRG-21" value="Delivery" style="swimlane;fontStyle=1;align=center;verticalAlign=top;childLayout=stackLayout;horizontal=1;startSize=26;horizontalStack=0;resizeParent=1;resizeParentMax=0;resizeLast=0;collapsible=1;marginBottom=0;strokeWidth=1;spacingTop=0;fontSize=12;strokeColor=#6c8ebf;fillColor=#dae8fc;" vertex="1" parent="1">
          <mxGeometry x="30.99999999999997" y="419" width="141" height="170" as="geometry" />
        </mxCell>
        <mxCell id="BGpOXGxUT94xlGYrzpRG-22" value="- date : Date&#xa;- anemia : String&#xa;- fetal-heartbeat : String&#xa;- presentation : String&#xa;- urine-test : String&#xa;- hemoglobin : String&#xa;- blood-group : String&#xa;- tuberculosis : String&#xa;&#xa;" style="text;strokeColor=#6C8EBF;fillColor=none;align=left;verticalAlign=top;spacingLeft=4;spacingRight=4;overflow=hidden;rotatable=0;points=[[0,0.5],[1,0.5]];portConstraint=eastwest;strokeWidth=1;spacingTop=0;fontSize=12;" vertex="1" parent="BGpOXGxUT94xlGYrzpRG-21">
          <mxGeometry y="26" width="141" height="144" as="geometry" />
        </mxCell>
        <mxCell id="BGpOXGxUT94xlGYrzpRG-23" value="PNCVisits" style="swimlane;fontStyle=1;align=center;verticalAlign=top;childLayout=stackLayout;horizontal=1;startSize=26;horizontalStack=0;resizeParent=1;resizeParentMax=0;resizeLast=0;collapsible=1;marginBottom=0;strokeWidth=1;spacingTop=0;fontSize=12;strokeColor=#6c8ebf;fillColor=#dae8fc;" vertex="1" parent="1">
          <mxGeometry x="29.99999999999997" y="216" width="163" height="194" as="geometry" />
        </mxCell>
        <mxCell id="BGpOXGxUT94xlGYrzpRG-24" value="- date : Date&#xa;- temperature: String&#xa;- dribbling : String&#xa;- breast: String&#xa;- anemia : String&#xa;- vitamin: String&#xa;- HIVtested: Boolean&#xa;- immunization : Boolean&#xa;- contraceptiveInfo : Boolean&#xa;- tetanusVaccination : Bool&#xa;" style="text;strokeColor=#6C8EBF;fillColor=none;align=left;verticalAlign=top;spacingLeft=4;spacingRight=4;overflow=hidden;rotatable=0;points=[[0,0.5],[1,0.5]];portConstraint=eastwest;strokeWidth=1;spacingTop=0;fontSize=12;" vertex="1" parent="BGpOXGxUT94xlGYrzpRG-23">
          <mxGeometry y="26" width="163" height="168" as="geometry" />
        </mxCell>
        <mxCell id="BGpOXGxUT94xlGYrzpRG-25" value="NewBorn" style="swimlane;fontStyle=1;align=center;verticalAlign=top;childLayout=stackLayout;horizontal=1;startSize=26;horizontalStack=0;resizeParent=1;resizeParentMax=0;resizeLast=0;collapsible=1;marginBottom=0;strokeWidth=1;spacingTop=0;fontSize=12;strokeColor=#6c8ebf;fillColor=#dae8fc;" vertex="1" parent="1">
          <mxGeometry x="29.999999999999986" y="50" width="143" height="149" as="geometry" />
        </mxCell>
        <mxCell id="BGpOXGxUT94xlGYrzpRG-26" value="- ID : String&#xa;- time : Date- sex : String&#xa;- birthWeight : Double&#xa;- birrthLength : Double&#xa;- sephallic : Boolean&#xa;- BCGVacine :Boolean&#xa;- polioVacine :Boolean" style="text;strokeColor=#6C8EBF;fillColor=none;align=left;verticalAlign=top;spacingLeft=4;spacingRight=4;overflow=hidden;rotatable=0;points=[[0,0.5],[1,0.5]];portConstraint=eastwest;strokeWidth=1;spacingTop=0;fontSize=12;" vertex="1" parent="BGpOXGxUT94xlGYrzpRG-25">
          <mxGeometry y="26" width="143" height="123" as="geometry" />
        </mxCell>
        <mxCell id="BGpOXGxUT94xlGYrzpRG-27" value="Midwife" style="swimlane;fontStyle=1;align=center;verticalAlign=top;childLayout=stackLayout;horizontal=1;startSize=26;horizontalStack=0;resizeParent=1;resizeParentMax=0;resizeLast=0;collapsible=1;marginBottom=0;strokeWidth=1;spacingTop=0;fontSize=12;strokeColor=#6c8ebf;fillColor=#dae8fc;" vertex="1" parent="1">
          <mxGeometry x="490" y="423" width="164.57142857142856" height="114" as="geometry" />
        </mxCell>
        <mxCell id="BGpOXGxUT94xlGYrzpRG-28" value="" style="line;strokeWidth=1;fillColor=none;align=left;verticalAlign=middle;spacingTop=0;spacingLeft=3;spacingRight=3;rotatable=0;labelPosition=right;points=[];portConstraint=eastwest;fontSize=12;strokeColor=#6C8EBF;" vertex="1" parent="BGpOXGxUT94xlGYrzpRG-27">
          <mxGeometry y="26" width="164.57142857142856" height="8" as="geometry" />
        </mxCell>
        <mxCell id="BGpOXGxUT94xlGYrzpRG-29" value="+ addMaternalAttr() : void&#xa;+ updateMaternalAttr() : void&#xa;+ view() : void&#xa;+ search() : void&#xa;" style="text;strokeColor=#6C8EBF;fillColor=none;align=left;verticalAlign=top;spacingLeft=4;spacingRight=4;overflow=hidden;rotatable=0;points=[[0,0.5],[1,0.5]];portConstraint=eastwest;strokeWidth=1;spacingTop=0;fontSize=12;" vertex="1" parent="BGpOXGxUT94xlGYrzpRG-27">
          <mxGeometry y="34" width="164.57142857142856" height="80" as="geometry" />
        </mxCell>
        <mxCell id="BGpOXGxUT94xlGYrzpRG-30" value="Doctor" style="swimlane;fontStyle=1;align=center;verticalAlign=top;childLayout=stackLayout;horizontal=1;startSize=26;horizontalStack=0;resizeParent=1;resizeParentMax=0;resizeLast=0;collapsible=1;marginBottom=0;strokeWidth=1;spacingTop=0;fontSize=12;strokeColor=#6c8ebf;fillColor=#dae8fc;" vertex="1" parent="1">
          <mxGeometry x="672" y="423" width="134.86" height="114" as="geometry" />
        </mxCell>
        <mxCell id="BGpOXGxUT94xlGYrzpRG-31" value="" style="line;strokeWidth=1;fillColor=none;align=left;verticalAlign=middle;spacingTop=0;spacingLeft=3;spacingRight=3;rotatable=0;labelPosition=right;points=[];portConstraint=eastwest;fontSize=12;strokeColor=#6C8EBF;" vertex="1" parent="BGpOXGxUT94xlGYrzpRG-30">
          <mxGeometry y="26" width="134.86" height="8" as="geometry" />
        </mxCell>
        <mxCell id="BGpOXGxUT94xlGYrzpRG-32" value="+ sendRequest() : void&#xa;+ updateData() : void&#xa;+ view() : void&#xa;+ examineClient() : void&#xa;+ search() : void&#xa;" style="text;strokeColor=#6C8EBF;fillColor=none;align=left;verticalAlign=top;spacingLeft=4;spacingRight=4;overflow=hidden;rotatable=0;points=[[0,0.5],[1,0.5]];portConstraint=eastwest;strokeWidth=1;spacingTop=0;fontSize=12;" vertex="1" parent="BGpOXGxUT94xlGYrzpRG-30">
          <mxGeometry y="34" width="134.86" height="80" as="geometry" />
        </mxCell>
        <mxCell id="BGpOXGxUT94xlGYrzpRG-33" value="" style="endArrow=none;html=1;rounded=0;strokeWidth=1;entryX=0.586;entryY=1.008;entryDx=0;entryDy=0;fillColor=#dae8fc;strokeColor=#6c8ebf;entryPerimeter=0;" edge="1" parent="1" target="BGpOXGxUT94xlGYrzpRG-20">
          <mxGeometry width="50" height="50" relative="1" as="geometry">
            <mxPoint x="352" y="270" as="sourcePoint" />
            <mxPoint x="352" y="219" as="targetPoint" />
          </mxGeometry>
        </mxCell>
        <mxCell id="BGpOXGxUT94xlGYrzpRG-34" value="followup" style="edgeLabel;html=1;align=center;verticalAlign=middle;resizable=0;points=[];" vertex="1" connectable="0" parent="BGpOXGxUT94xlGYrzpRG-33">
          <mxGeometry x="0.4265" y="-2" relative="1" as="geometry">
            <mxPoint x="21" y="18" as="offset" />
          </mxGeometry>
        </mxCell>
        <mxCell id="BGpOXGxUT94xlGYrzpRG-35" value="&lt;b&gt;1&lt;/b&gt;" style="edgeLabel;html=1;align=center;verticalAlign=middle;resizable=0;points=[];" vertex="1" connectable="0" parent="BGpOXGxUT94xlGYrzpRG-33">
          <mxGeometry x="-0.4229" y="-2" relative="1" as="geometry">
            <mxPoint x="3" y="8" as="offset" />
          </mxGeometry>
        </mxCell>
        <mxCell id="BGpOXGxUT94xlGYrzpRG-36" value="&lt;font style=&quot;font-size: 11px;&quot;&gt;&lt;b&gt;1..*&lt;/b&gt;&lt;/font&gt;" style="edgeLabel;html=1;align=center;verticalAlign=middle;resizable=0;points=[];" vertex="1" connectable="0" parent="BGpOXGxUT94xlGYrzpRG-33">
          <mxGeometry x="0.5838" y="-3" relative="1" as="geometry">
            <mxPoint x="9" y="-1" as="offset" />
          </mxGeometry>
        </mxCell>
        <mxCell id="BGpOXGxUT94xlGYrzpRG-37" value="" style="endArrow=none;html=1;rounded=0;strokeWidth=1;entryX=1;entryY=0.78;entryDx=0;entryDy=0;entryPerimeter=0;fillColor=#dae8fc;strokeColor=#6c8ebf;" edge="1" parent="1" target="BGpOXGxUT94xlGYrzpRG-26">
          <mxGeometry width="50" height="50" relative="1" as="geometry">
            <mxPoint x="300" y="290" as="sourcePoint" />
            <mxPoint x="430" y="209" as="targetPoint" />
            <Array as="points">
              <mxPoint x="230" y="290" />
              <mxPoint x="230" y="170" />
            </Array>
          </mxGeometry>
        </mxCell>
        <mxCell id="BGpOXGxUT94xlGYrzpRG-38" value="has" style="edgeLabel;html=1;align=center;verticalAlign=middle;resizable=0;points=[];" vertex="1" connectable="0" parent="BGpOXGxUT94xlGYrzpRG-37">
          <mxGeometry x="0.4265" y="-2" relative="1" as="geometry">
            <mxPoint x="11" y="57" as="offset" />
          </mxGeometry>
        </mxCell>
        <mxCell id="BGpOXGxUT94xlGYrzpRG-39" value="&lt;b&gt;1&lt;/b&gt;" style="edgeLabel;html=1;align=center;verticalAlign=middle;resizable=0;points=[];fontSize=11;" vertex="1" connectable="0" parent="BGpOXGxUT94xlGYrzpRG-37">
          <mxGeometry x="-0.7448" y="-6" relative="1" as="geometry">
            <mxPoint x="24" y="-3" as="offset" />
          </mxGeometry>
        </mxCell>
        <mxCell id="BGpOXGxUT94xlGYrzpRG-40" value="&lt;b&gt;1..*&lt;/b&gt;" style="edgeLabel;html=1;align=center;verticalAlign=middle;resizable=0;points=[];fontSize=11;" vertex="1" connectable="0" parent="BGpOXGxUT94xlGYrzpRG-37">
          <mxGeometry x="0.857" y="-8" relative="1" as="geometry">
            <mxPoint x="-8" y="-4" as="offset" />
          </mxGeometry>
        </mxCell>
        <mxCell id="BGpOXGxUT94xlGYrzpRG-41" value="" style="endArrow=none;html=1;rounded=0;strokeWidth=1;fillColor=#dae8fc;strokeColor=#6c8ebf;exitX=0.007;exitY=0.18;exitDx=0;exitDy=0;exitPerimeter=0;" edge="1" parent="1">
          <mxGeometry width="50" height="50" relative="1" as="geometry">
            <mxPoint x="301.98" y="329.03999999999996" as="sourcePoint" />
            <mxPoint x="191" y="329" as="targetPoint" />
          </mxGeometry>
        </mxCell>
        <mxCell id="BGpOXGxUT94xlGYrzpRG-42" value="followup" style="edgeLabel;html=1;align=center;verticalAlign=middle;resizable=0;points=[];" vertex="1" connectable="0" parent="BGpOXGxUT94xlGYrzpRG-41">
          <mxGeometry x="0.4265" y="-2" relative="1" as="geometry">
            <mxPoint x="24" y="-8" as="offset" />
          </mxGeometry>
        </mxCell>
        <mxCell id="BGpOXGxUT94xlGYrzpRG-43" value="&lt;b&gt;1&lt;/b&gt;" style="edgeLabel;html=1;align=center;verticalAlign=middle;resizable=0;points=[];fontSize=11;" vertex="1" connectable="0" parent="BGpOXGxUT94xlGYrzpRG-41">
          <mxGeometry x="-0.6929" y="-4" relative="1" as="geometry">
            <mxPoint x="6" y="-5" as="offset" />
          </mxGeometry>
        </mxCell>
        <mxCell id="BGpOXGxUT94xlGYrzpRG-44" value="&lt;b&gt;1..*&lt;/b&gt;" style="edgeLabel;html=1;align=center;verticalAlign=middle;resizable=0;points=[];fontSize=11;" vertex="1" connectable="0" parent="BGpOXGxUT94xlGYrzpRG-41">
          <mxGeometry x="0.7768" y="-7" relative="1" as="geometry">
            <mxPoint x="1" y="-1" as="offset" />
          </mxGeometry>
        </mxCell>
        <mxCell id="BGpOXGxUT94xlGYrzpRG-45" value="" style="endArrow=none;html=1;rounded=0;strokeWidth=1;fillColor=#dae8fc;strokeColor=#6c8ebf;exitX=0.021;exitY=0.286;exitDx=0;exitDy=0;entryX=0.986;entryY=0.25;entryDx=0;entryDy=0;entryPerimeter=0;exitPerimeter=0;" edge="1" parent="1">
          <mxGeometry width="50" height="50" relative="1" as="geometry">
            <mxPoint x="302.94000000000005" y="476.0160000000001" as="sourcePoint" />
            <mxPoint x="171.02600000000007" y="477" as="targetPoint" />
          </mxGeometry>
        </mxCell>
        <mxCell id="BGpOXGxUT94xlGYrzpRG-46" value="gives" style="edgeLabel;html=1;align=center;verticalAlign=middle;resizable=0;points=[];" vertex="1" connectable="0" parent="BGpOXGxUT94xlGYrzpRG-45">
          <mxGeometry x="0.4265" y="-2" relative="1" as="geometry">
            <mxPoint x="29" y="-8" as="offset" />
          </mxGeometry>
        </mxCell>
        <mxCell id="BGpOXGxUT94xlGYrzpRG-47" value="&lt;b&gt;1&lt;/b&gt;" style="edgeLabel;html=1;align=center;verticalAlign=middle;resizable=0;points=[];fontSize=11;" vertex="1" connectable="0" parent="BGpOXGxUT94xlGYrzpRG-45">
          <mxGeometry x="-0.6929" y="-4" relative="1" as="geometry">
            <mxPoint x="8" y="-5" as="offset" />
          </mxGeometry>
        </mxCell>
        <mxCell id="BGpOXGxUT94xlGYrzpRG-48" value="&lt;b&gt;1..*&lt;/b&gt;" style="edgeLabel;html=1;align=center;verticalAlign=middle;resizable=0;points=[];fontSize=11;" vertex="1" connectable="0" parent="BGpOXGxUT94xlGYrzpRG-45">
          <mxGeometry x="0.7768" y="-7" relative="1" as="geometry">
            <mxPoint x="-5" y="-1" as="offset" />
          </mxGeometry>
        </mxCell>
        <mxCell id="BGpOXGxUT94xlGYrzpRG-49" value="" style="endArrow=none;html=1;rounded=0;fontSize=11;strokeWidth=1;entryX=1.007;entryY=0.315;entryDx=0;entryDy=0;exitX=0.113;exitY=1.017;exitDx=0;exitDy=0;startArrow=block;startFill=0;fillColor=#dae8fc;strokeColor=#6c8ebf;exitPerimeter=0;entryPerimeter=0;" edge="1" parent="1" source="BGpOXGxUT94xlGYrzpRG-3" target="BGpOXGxUT94xlGYrzpRG-17">
          <mxGeometry width="50" height="50" relative="1" as="geometry">
            <mxPoint x="650" y="430" as="sourcePoint" />
            <mxPoint x="700" y="380" as="targetPoint" />
            <Array as="points">
              <mxPoint x="630" y="350" />
            </Array>
          </mxGeometry>
        </mxCell>
        <mxCell id="BGpOXGxUT94xlGYrzpRG-50" style="edgeStyle=none;rounded=0;orthogonalLoop=1;jettySize=auto;html=1;fontSize=11;startArrow=none;startFill=0;endArrow=block;endFill=0;strokeWidth=1;fillColor=#dae8fc;strokeColor=#6c8ebf;" edge="1" parent="1">
          <mxGeometry relative="1" as="geometry">
            <mxPoint x="663" y="369" as="targetPoint" />
            <mxPoint x="663" y="610" as="sourcePoint" />
          </mxGeometry>
        </mxCell>
        <mxCell id="BGpOXGxUT94xlGYrzpRG-51" value="" style="endArrow=none;html=1;rounded=0;fontSize=11;strokeWidth=1;fillColor=#dae8fc;strokeColor=#6c8ebf;" edge="1" parent="1">
          <mxGeometry width="50" height="50" relative="1" as="geometry">
            <mxPoint x="740" y="370" as="sourcePoint" />
            <mxPoint x="580" y="370" as="targetPoint" />
          </mxGeometry>
        </mxCell>
        <mxCell id="BGpOXGxUT94xlGYrzpRG-52" style="edgeStyle=none;rounded=0;orthogonalLoop=1;jettySize=auto;html=1;fontSize=11;startArrow=none;startFill=0;endArrow=block;endFill=0;strokeWidth=1;fillColor=#dae8fc;strokeColor=#6c8ebf;entryX=0.513;entryY=1.083;entryDx=0;entryDy=0;entryPerimeter=0;" edge="1" parent="1">
          <mxGeometry relative="1" as="geometry">
            <mxPoint x="657.0799999999999" y="311.98" as="targetPoint" />
            <mxPoint x="657" y="370" as="sourcePoint" />
          </mxGeometry>
        </mxCell>
        <mxCell id="BGpOXGxUT94xlGYrzpRG-53" style="edgeStyle=none;rounded=0;orthogonalLoop=1;jettySize=auto;html=1;fontSize=11;startArrow=none;startFill=0;endArrow=block;endFill=0;strokeWidth=1;fillColor=#dae8fc;strokeColor=#6c8ebf;entryX=0.513;entryY=1.083;entryDx=0;entryDy=0;entryPerimeter=0;" edge="1" parent="1">
          <mxGeometry relative="1" as="geometry">
            <mxPoint x="581.0799999999999" y="367.98" as="targetPoint" />
            <mxPoint x="581" y="423" as="sourcePoint" />
          </mxGeometry>
        </mxCell>
        <mxCell id="BGpOXGxUT94xlGYrzpRG-54" style="edgeStyle=none;rounded=0;orthogonalLoop=1;jettySize=auto;html=1;fontSize=11;startArrow=none;startFill=0;endArrow=block;endFill=0;strokeWidth=1;fillColor=#dae8fc;strokeColor=#6c8ebf;entryX=0.513;entryY=1.083;entryDx=0;entryDy=0;entryPerimeter=0;" edge="1" parent="1">
          <mxGeometry relative="1" as="geometry">
            <mxPoint x="741.0799999999999" y="367.98" as="targetPoint" />
            <mxPoint x="741" y="423" as="sourcePoint" />
          </mxGeometry>
        </mxCell>
        <mxCell id="BGpOXGxUT94xlGYrzpRG-55" value="Appointment" style="swimlane;fontStyle=1;align=center;verticalAlign=top;childLayout=stackLayout;horizontal=1;startSize=26;horizontalStack=0;resizeParent=1;resizeParentMax=0;resizeLast=0;collapsible=1;marginBottom=0;strokeWidth=1;spacingTop=0;fontSize=12;strokeColor=#6c8ebf;fillColor=#dae8fc;" vertex="1" parent="1">
          <mxGeometry x="477" y="50" width="110" height="180" as="geometry" />
        </mxCell>
        <mxCell id="BGpOXGxUT94xlGYrzpRG-56" value="- fullName : String&#xa;- phoneNo. : String&#xa;- email : String&#xa;- date : Date" style="text;strokeColor=#6C8EBF;fillColor=none;align=left;verticalAlign=top;spacingLeft=4;spacingRight=4;overflow=hidden;rotatable=0;points=[[0,0.5],[1,0.5]];portConstraint=eastwest;strokeWidth=1;spacingTop=0;fontSize=12;" vertex="1" parent="BGpOXGxUT94xlGYrzpRG-55">
          <mxGeometry y="26" width="110" height="71" as="geometry" />
        </mxCell>
        <mxCell id="BGpOXGxUT94xlGYrzpRG-57" value="+ book() : void&#xa;+ getter() : String&#xa;+ setter() : void" style="text;strokeColor=#6C8EBF;fillColor=none;align=left;verticalAlign=top;spacingLeft=4;spacingRight=4;overflow=hidden;rotatable=0;points=[[0,0.5],[1,0.5]];portConstraint=eastwest;strokeWidth=1;spacingTop=0;fontSize=12;" vertex="1" parent="BGpOXGxUT94xlGYrzpRG-55">
          <mxGeometry y="97" width="110" height="83" as="geometry" />
        </mxCell>
        <mxCell id="BGpOXGxUT94xlGYrzpRG-58" value="Gynacology" style="swimlane;fontStyle=1;align=center;verticalAlign=top;childLayout=stackLayout;horizontal=1;startSize=26;horizontalStack=0;resizeParent=1;resizeParentMax=0;resizeLast=0;collapsible=1;marginBottom=0;strokeWidth=1;spacingTop=0;fontSize=12;strokeColor=#6c8ebf;fillColor=#dae8fc;" vertex="1" parent="1">
          <mxGeometry x="620" y="650" width="130" height="114" as="geometry" />
        </mxCell>
        <mxCell id="BGpOXGxUT94xlGYrzpRG-59" value="" style="line;strokeWidth=1;fillColor=none;align=left;verticalAlign=middle;spacingTop=0;spacingLeft=3;spacingRight=3;rotatable=0;labelPosition=right;points=[];portConstraint=eastwest;fontSize=12;strokeColor=#6C8EBF;" vertex="1" parent="BGpOXGxUT94xlGYrzpRG-58">
          <mxGeometry y="26" width="130" height="8" as="geometry" />
        </mxCell>
        <mxCell id="BGpOXGxUT94xlGYrzpRG-60" value="+ viewRequest() : void&#xa;+ performOpes() : void&#xa;+ search() : void" style="text;strokeColor=#6C8EBF;fillColor=none;align=left;verticalAlign=top;spacingLeft=4;spacingRight=4;overflow=hidden;rotatable=0;points=[[0,0.5],[1,0.5]];portConstraint=eastwest;strokeWidth=1;spacingTop=0;fontSize=12;" vertex="1" parent="BGpOXGxUT94xlGYrzpRG-58">
          <mxGeometry y="34" width="130" height="80" as="geometry" />
        </mxCell>
        <mxCell id="BGpOXGxUT94xlGYrzpRG-61" value="LabTechnician" style="swimlane;fontStyle=1;align=center;verticalAlign=top;childLayout=stackLayout;horizontal=1;startSize=26;horizontalStack=0;resizeParent=1;resizeParentMax=0;resizeLast=0;collapsible=1;marginBottom=0;strokeWidth=1;spacingTop=0;fontSize=12;strokeColor=#6c8ebf;fillColor=#dae8fc;" vertex="1" parent="1">
          <mxGeometry x="181" y="650" width="122.67" height="114" as="geometry" />
        </mxCell>
        <mxCell id="BGpOXGxUT94xlGYrzpRG-62" value="" style="line;strokeWidth=1;fillColor=none;align=left;verticalAlign=middle;spacingTop=0;spacingLeft=3;spacingRight=3;rotatable=0;labelPosition=right;points=[];portConstraint=eastwest;fontSize=12;strokeColor=#6C8EBF;" vertex="1" parent="BGpOXGxUT94xlGYrzpRG-61">
          <mxGeometry y="26" width="122.67" height="8" as="geometry" />
        </mxCell>
        <mxCell id="BGpOXGxUT94xlGYrzpRG-63" value="+ sendResult() : void&#xa;+ updateData() : void&#xa;+ view() : void&#xa;+ search() : void" style="text;strokeColor=#6C8EBF;fillColor=none;align=left;verticalAlign=top;spacingLeft=4;spacingRight=4;overflow=hidden;rotatable=0;points=[[0,0.5],[1,0.5]];portConstraint=eastwest;strokeWidth=1;spacingTop=0;fontSize=12;" vertex="1" parent="BGpOXGxUT94xlGYrzpRG-61">
          <mxGeometry y="34" width="122.67" height="80" as="geometry" />
        </mxCell>
        <mxCell id="BGpOXGxUT94xlGYrzpRG-64" value="Pharmacist " style="swimlane;fontStyle=1;align=center;verticalAlign=top;childLayout=stackLayout;horizontal=1;startSize=26;horizontalStack=0;resizeParent=1;resizeParentMax=0;resizeLast=0;collapsible=1;marginBottom=0;strokeWidth=1;spacingTop=0;fontSize=12;strokeColor=#6c8ebf;fillColor=#dae8fc;" vertex="1" parent="1">
          <mxGeometry x="320" y="650" width="143.67" height="114" as="geometry" />
        </mxCell>
        <mxCell id="BGpOXGxUT94xlGYrzpRG-65" value="" style="line;strokeWidth=1;fillColor=none;align=left;verticalAlign=middle;spacingTop=0;spacingLeft=3;spacingRight=3;rotatable=0;labelPosition=right;points=[];portConstraint=eastwest;fontSize=12;strokeColor=#6C8EBF;" vertex="1" parent="BGpOXGxUT94xlGYrzpRG-64">
          <mxGeometry y="26" width="143.67" height="8" as="geometry" />
        </mxCell>
        <mxCell id="BGpOXGxUT94xlGYrzpRG-66" value="+ viewPrescription :void&#xa;+ addDrugDetail() : void&#xa;+ search() : void&#xa;" style="text;strokeColor=#6C8EBF;fillColor=none;align=left;verticalAlign=top;spacingLeft=4;spacingRight=4;overflow=hidden;rotatable=0;points=[[0,0.5],[1,0.5]];portConstraint=eastwest;strokeWidth=1;spacingTop=0;fontSize=12;" vertex="1" parent="BGpOXGxUT94xlGYrzpRG-64">
          <mxGeometry y="34" width="143.67" height="80" as="geometry" />
        </mxCell>
        <mxCell id="BGpOXGxUT94xlGYrzpRG-67" value="HMISOfficer" style="swimlane;fontStyle=1;align=center;verticalAlign=top;childLayout=stackLayout;horizontal=1;startSize=26;horizontalStack=0;resizeParent=1;resizeParentMax=0;resizeLast=0;collapsible=1;marginBottom=0;strokeWidth=1;spacingTop=0;fontSize=12;strokeColor=#6c8ebf;fillColor=#dae8fc;" vertex="1" parent="1">
          <mxGeometry x="473.33000000000004" y="649" width="133.67" height="90" as="geometry" />
        </mxCell>
        <mxCell id="BGpOXGxUT94xlGYrzpRG-68" value="" style="line;strokeWidth=1;fillColor=none;align=left;verticalAlign=middle;spacingTop=0;spacingLeft=3;spacingRight=3;rotatable=0;labelPosition=right;points=[];portConstraint=eastwest;fontSize=12;strokeColor=#6C8EBF;" vertex="1" parent="BGpOXGxUT94xlGYrzpRG-67">
          <mxGeometry y="26" width="133.67" height="8" as="geometry" />
        </mxCell>
        <mxCell id="BGpOXGxUT94xlGYrzpRG-69" value="+ viewReport() : void&#xa;+ sendFeedback() :&#xa;   void" style="text;strokeColor=#6C8EBF;fillColor=none;align=left;verticalAlign=top;spacingLeft=4;spacingRight=4;overflow=hidden;rotatable=0;points=[[0,0.5],[1,0.5]];portConstraint=eastwest;strokeWidth=1;spacingTop=0;fontSize=12;" vertex="1" parent="BGpOXGxUT94xlGYrzpRG-67">
          <mxGeometry y="34" width="133.67" height="56" as="geometry" />
        </mxCell>
        <mxCell id="BGpOXGxUT94xlGYrzpRG-70" value="DataClerk" style="swimlane;fontStyle=1;align=center;verticalAlign=top;childLayout=stackLayout;horizontal=1;startSize=26;horizontalStack=0;resizeParent=1;resizeParentMax=0;resizeLast=0;collapsible=1;marginBottom=0;strokeWidth=1;spacingTop=0;fontSize=12;strokeColor=#6c8ebf;fillColor=#dae8fc;" vertex="1" parent="1">
          <mxGeometry x="477" y="850" width="133.67" height="114" as="geometry" />
        </mxCell>
        <mxCell id="BGpOXGxUT94xlGYrzpRG-71" value="" style="line;strokeWidth=1;fillColor=none;align=left;verticalAlign=middle;spacingTop=0;spacingLeft=3;spacingRight=3;rotatable=0;labelPosition=right;points=[];portConstraint=eastwest;fontSize=12;strokeColor=#6C8EBF;" vertex="1" parent="BGpOXGxUT94xlGYrzpRG-70">
          <mxGeometry y="26" width="133.67" height="8" as="geometry" />
        </mxCell>
        <mxCell id="BGpOXGxUT94xlGYrzpRG-72" value="+ generateReport() : void&#xa;+ sendReport() : void&#xa;+ updateReport() : void&#xa;+ view() : void&#xa;+ search() : void&#xa;" style="text;strokeColor=#6C8EBF;fillColor=none;align=left;verticalAlign=top;spacingLeft=4;spacingRight=4;overflow=hidden;rotatable=0;points=[[0,0.5],[1,0.5]];portConstraint=eastwest;strokeWidth=1;spacingTop=0;fontSize=12;" vertex="1" parent="BGpOXGxUT94xlGYrzpRG-70">
          <mxGeometry y="34" width="133.67" height="80" as="geometry" />
        </mxCell>
        <mxCell id="BGpOXGxUT94xlGYrzpRG-73" style="edgeStyle=none;rounded=0;orthogonalLoop=1;jettySize=auto;html=1;fontSize=11;startArrow=none;startFill=0;endArrow=block;endFill=0;strokeWidth=1;fillColor=#dae8fc;strokeColor=#6c8ebf;exitX=0.75;exitY=0;exitDx=0;exitDy=0;" edge="1" parent="1">
          <mxGeometry relative="1" as="geometry">
            <mxPoint x="562" y="610" as="targetPoint" />
            <mxPoint x="561.5825" y="649" as="sourcePoint" />
          </mxGeometry>
        </mxCell>
        <mxCell id="BGpOXGxUT94xlGYrzpRG-74" value="Receptionist" style="swimlane;fontStyle=1;align=center;verticalAlign=top;childLayout=stackLayout;horizontal=1;startSize=26;horizontalStack=0;resizeParent=1;resizeParentMax=0;resizeLast=0;collapsible=1;marginBottom=0;strokeWidth=1;spacingTop=0;fontSize=12;strokeColor=#6c8ebf;fillColor=#dae8fc;" vertex="1" parent="1">
          <mxGeometry x="36" y="650" width="133.78" height="100" as="geometry" />
        </mxCell>
        <mxCell id="BGpOXGxUT94xlGYrzpRG-75" value="" style="text;strokeColor=#6C8EBF;fillColor=none;align=left;verticalAlign=top;spacingLeft=4;spacingRight=4;overflow=hidden;rotatable=0;points=[[0,0.5],[1,0.5]];portConstraint=eastwest;strokeWidth=1;spacingTop=0;fontSize=12;" vertex="1" parent="BGpOXGxUT94xlGYrzpRG-74">
          <mxGeometry y="26" width="133.78" height="4" as="geometry" />
        </mxCell>
        <mxCell id="BGpOXGxUT94xlGYrzpRG-76" value="+ addClient(): void&#xa;+ updateData(): void&#xa;+ getter() : String&#xa;+ setter() : void" style="text;strokeColor=#6C8EBF;fillColor=none;align=left;verticalAlign=top;spacingLeft=4;spacingRight=4;overflow=hidden;rotatable=0;points=[[0,0.5],[1,0.5]];portConstraint=eastwest;strokeWidth=1;spacingTop=0;fontSize=12;" vertex="1" parent="BGpOXGxUT94xlGYrzpRG-74">
          <mxGeometry y="30" width="133.78" height="70" as="geometry" />
        </mxCell>
        <mxCell id="BGpOXGxUT94xlGYrzpRG-77" value="" style="endArrow=none;html=1;rounded=0;strokeWidth=1;entryX=0.001;entryY=0.009;entryDx=0;entryDy=0;exitX=1;exitY=0.903;exitDx=0;exitDy=0;entryPerimeter=0;fillColor=#dae8fc;strokeColor=#6c8ebf;exitPerimeter=0;" edge="1" parent="1" source="BGpOXGxUT94xlGYrzpRG-17" target="BGpOXGxUT94xlGYrzpRG-29">
          <mxGeometry width="50" height="50" relative="1" as="geometry">
            <mxPoint x="345" y="281" as="sourcePoint" />
            <mxPoint x="183" y="181.93999999999994" as="targetPoint" />
          </mxGeometry>
        </mxCell>
        <mxCell id="BGpOXGxUT94xlGYrzpRG-78" value="checkup" style="edgeLabel;html=1;align=center;verticalAlign=middle;resizable=0;points=[];" vertex="1" connectable="0" parent="BGpOXGxUT94xlGYrzpRG-77">
          <mxGeometry x="0.4265" y="-2" relative="1" as="geometry">
            <mxPoint x="-12" y="-11" as="offset" />
          </mxGeometry>
        </mxCell>
        <mxCell id="BGpOXGxUT94xlGYrzpRG-79" value="&lt;b&gt;1&lt;/b&gt;" style="edgeLabel;html=1;align=center;verticalAlign=middle;resizable=0;points=[];fontSize=11;" vertex="1" connectable="0" parent="BGpOXGxUT94xlGYrzpRG-77">
          <mxGeometry x="-0.7448" y="-6" relative="1" as="geometry">
            <mxPoint x="35" y="2" as="offset" />
          </mxGeometry>
        </mxCell>
        <mxCell id="BGpOXGxUT94xlGYrzpRG-80" value="&lt;b&gt;1..*&lt;/b&gt;" style="edgeLabel;html=1;align=center;verticalAlign=middle;resizable=0;points=[];fontSize=11;" vertex="1" connectable="0" parent="BGpOXGxUT94xlGYrzpRG-77">
          <mxGeometry x="0.857" y="-8" relative="1" as="geometry">
            <mxPoint x="-33" y="-1" as="offset" />
          </mxGeometry>
        </mxCell>
        <mxCell id="BGpOXGxUT94xlGYrzpRG-81" value="" style="endArrow=none;html=1;rounded=0;fontSize=11;strokeWidth=1;fillColor=#dae8fc;strokeColor=#6c8ebf;" edge="1" parent="1">
          <mxGeometry width="50" height="50" relative="1" as="geometry">
            <mxPoint x="705" y="610" as="sourcePoint" />
            <mxPoint x="143" y="610" as="targetPoint" />
          </mxGeometry>
        </mxCell>
        <mxCell id="BGpOXGxUT94xlGYrzpRG-82" style="edgeStyle=none;rounded=0;orthogonalLoop=1;jettySize=auto;html=1;fontSize=11;startArrow=none;startFill=0;endArrow=block;endFill=0;strokeWidth=1;fillColor=#dae8fc;strokeColor=#6c8ebf;exitX=0.75;exitY=0;exitDx=0;exitDy=0;" edge="1" parent="1">
          <mxGeometry relative="1" as="geometry">
            <mxPoint x="401.9999999999998" y="610" as="targetPoint" />
            <mxPoint x="401.5825" y="649" as="sourcePoint" />
          </mxGeometry>
        </mxCell>
        <mxCell id="BGpOXGxUT94xlGYrzpRG-83" style="edgeStyle=none;rounded=0;orthogonalLoop=1;jettySize=auto;html=1;fontSize=11;startArrow=none;startFill=0;endArrow=block;endFill=0;strokeWidth=1;fillColor=#dae8fc;strokeColor=#6c8ebf;exitX=0.75;exitY=0;exitDx=0;exitDy=0;" edge="1" parent="1">
          <mxGeometry relative="1" as="geometry">
            <mxPoint x="240.99999999999977" y="610" as="targetPoint" />
            <mxPoint x="240.58249999999998" y="649" as="sourcePoint" />
          </mxGeometry>
        </mxCell>
        <mxCell id="BGpOXGxUT94xlGYrzpRG-84" style="edgeStyle=none;rounded=0;orthogonalLoop=1;jettySize=auto;html=1;fontSize=11;startArrow=none;startFill=0;endArrow=block;endFill=0;strokeWidth=1;fillColor=#dae8fc;strokeColor=#6c8ebf;exitX=0.75;exitY=0;exitDx=0;exitDy=0;" edge="1" parent="1">
          <mxGeometry relative="1" as="geometry">
            <mxPoint x="703.9999999999998" y="610" as="targetPoint" />
            <mxPoint x="703.5825" y="649" as="sourcePoint" />
          </mxGeometry>
        </mxCell>
        <mxCell id="BGpOXGxUT94xlGYrzpRG-85" value="" style="endArrow=none;html=1;rounded=0;strokeWidth=1;entryX=0.818;entryY=1.024;entryDx=0;entryDy=0;fillColor=#dae8fc;strokeColor=#6c8ebf;entryPerimeter=0;" edge="1" parent="1">
          <mxGeometry width="50" height="50" relative="1" as="geometry">
            <mxPoint x="439" y="330" as="sourcePoint" />
            <mxPoint x="529.98" y="231.99199999999996" as="targetPoint" />
            <Array as="points">
              <mxPoint x="530" y="330" />
            </Array>
          </mxGeometry>
        </mxCell>
        <mxCell id="BGpOXGxUT94xlGYrzpRG-86" value="book" style="edgeLabel;html=1;align=center;verticalAlign=middle;resizable=0;points=[];" vertex="1" connectable="0" parent="BGpOXGxUT94xlGYrzpRG-85">
          <mxGeometry x="0.4265" y="-2" relative="1" as="geometry">
            <mxPoint x="-18" y="7" as="offset" />
          </mxGeometry>
        </mxCell>
        <mxCell id="BGpOXGxUT94xlGYrzpRG-87" value="&lt;b&gt;1&lt;/b&gt;" style="edgeLabel;html=1;align=center;verticalAlign=middle;resizable=0;points=[];fontSize=11;" vertex="1" connectable="0" parent="BGpOXGxUT94xlGYrzpRG-85">
          <mxGeometry x="-0.7448" y="-6" relative="1" as="geometry">
            <mxPoint x="-17" y="-14" as="offset" />
          </mxGeometry>
        </mxCell>
        <mxCell id="BGpOXGxUT94xlGYrzpRG-88" value="&lt;b&gt;1&lt;/b&gt;" style="edgeLabel;html=1;align=center;verticalAlign=middle;resizable=0;points=[];fontSize=11;" vertex="1" connectable="0" parent="BGpOXGxUT94xlGYrzpRG-85">
          <mxGeometry x="0.857" y="-8" relative="1" as="geometry">
            <mxPoint x="-15" y="-3" as="offset" />
          </mxGeometry>
        </mxCell>
        <mxCell id="BGpOXGxUT94xlGYrzpRG-89" value="" style="endArrow=none;html=1;rounded=0;strokeWidth=1;exitX=0.25;exitY=0;exitDx=0;exitDy=0;fillColor=#dae8fc;strokeColor=#6c8ebf;" edge="1" parent="1">
          <mxGeometry width="50" height="50" relative="1" as="geometry">
            <mxPoint x="544.1428571428571" y="422" as="sourcePoint" />
            <mxPoint x="544" y="232" as="targetPoint" />
          </mxGeometry>
        </mxCell>
        <mxCell id="BGpOXGxUT94xlGYrzpRG-90" value="set" style="edgeLabel;html=1;align=center;verticalAlign=middle;resizable=0;points=[];" vertex="1" connectable="0" parent="BGpOXGxUT94xlGYrzpRG-89">
          <mxGeometry x="0.4265" y="-2" relative="1" as="geometry">
            <mxPoint x="8" y="32" as="offset" />
          </mxGeometry>
        </mxCell>
        <mxCell id="BGpOXGxUT94xlGYrzpRG-91" value="&lt;b&gt;1&lt;/b&gt;" style="edgeLabel;html=1;align=center;verticalAlign=middle;resizable=0;points=[];fontSize=11;" vertex="1" connectable="0" parent="BGpOXGxUT94xlGYrzpRG-89">
          <mxGeometry x="-0.7448" y="-6" relative="1" as="geometry">
            <mxPoint x="1" y="16" as="offset" />
          </mxGeometry>
        </mxCell>
        <mxCell id="BGpOXGxUT94xlGYrzpRG-92" value="&lt;b&gt;1..*&lt;/b&gt;" style="edgeLabel;html=1;align=center;verticalAlign=middle;resizable=0;points=[];fontSize=11;" vertex="1" connectable="0" parent="BGpOXGxUT94xlGYrzpRG-89">
          <mxGeometry x="0.857" y="-8" relative="1" as="geometry">
            <mxPoint x="7" y="-8" as="offset" />
          </mxGeometry>
        </mxCell>
        <mxCell id="BGpOXGxUT94xlGYrzpRG-93" value="" style="endArrow=none;html=1;rounded=0;strokeWidth=1;entryX=0.5;entryY=0;entryDx=0;entryDy=0;fillColor=#dae8fc;strokeColor=#6c8ebf;exitX=0;exitY=0.5;exitDx=0;exitDy=0;" edge="1" parent="1" source="BGpOXGxUT94xlGYrzpRG-18" target="BGpOXGxUT94xlGYrzpRG-74">
          <mxGeometry width="50" height="50" relative="1" as="geometry">
            <mxPoint x="367" y="533" as="sourcePoint" />
            <mxPoint x="203" y="201.94000000000005" as="targetPoint" />
            <Array as="points">
              <mxPoint x="251" y="503" />
              <mxPoint x="251" y="597" />
              <mxPoint x="103" y="597" />
            </Array>
          </mxGeometry>
        </mxCell>
        <mxCell id="BGpOXGxUT94xlGYrzpRG-94" value="register" style="edgeLabel;html=1;align=center;verticalAlign=middle;resizable=0;points=[];" vertex="1" connectable="0" parent="BGpOXGxUT94xlGYrzpRG-93">
          <mxGeometry x="0.4265" y="-2" relative="1" as="geometry">
            <mxPoint x="65" y="-10" as="offset" />
          </mxGeometry>
        </mxCell>
        <mxCell id="BGpOXGxUT94xlGYrzpRG-95" value="&lt;b&gt;1&lt;/b&gt;..*" style="edgeLabel;html=1;align=center;verticalAlign=middle;resizable=0;points=[];fontSize=11;" vertex="1" connectable="0" parent="BGpOXGxUT94xlGYrzpRG-93">
          <mxGeometry x="-0.7448" y="-6" relative="1" as="geometry">
            <mxPoint x="32" y="-3" as="offset" />
          </mxGeometry>
        </mxCell>
        <mxCell id="BGpOXGxUT94xlGYrzpRG-96" value="&lt;b&gt;1&lt;/b&gt;" style="edgeLabel;html=1;align=center;verticalAlign=middle;resizable=0;points=[];fontSize=11;" vertex="1" connectable="0" parent="BGpOXGxUT94xlGYrzpRG-93">
          <mxGeometry x="0.857" y="-8" relative="1" as="geometry">
            <mxPoint y="16" as="offset" />
          </mxGeometry>
        </mxCell>
        <mxCell id="BGpOXGxUT94xlGYrzpRG-97" style="edgeStyle=none;rounded=0;orthogonalLoop=1;jettySize=auto;html=1;fontSize=11;startArrow=none;startFill=0;endArrow=block;endFill=0;strokeWidth=1;fillColor=#dae8fc;strokeColor=#6c8ebf;exitX=0.75;exitY=0;exitDx=0;exitDy=0;" edge="1" parent="1">
          <mxGeometry relative="1" as="geometry">
            <mxPoint x="143.99999999999977" y="610" as="targetPoint" />
            <mxPoint x="143.58249999999998" y="649" as="sourcePoint" />
          </mxGeometry>
        </mxCell>
        <mxCell id="BGpOXGxUT94xlGYrzpRG-98" value="" style="endArrow=none;html=1;rounded=0;strokeWidth=1;fillColor=#dae8fc;strokeColor=#6c8ebf;entryX=0.579;entryY=0.009;entryDx=0;entryDy=0;entryPerimeter=0;" edge="1" parent="1">
          <mxGeometry width="50" height="50" relative="1" as="geometry">
            <mxPoint x="300" y="513" as="sourcePoint" />
            <mxPoint x="261.02593" y="651.0259999999998" as="targetPoint" />
            <Array as="points">
              <mxPoint x="261" y="513" />
              <mxPoint x="261" y="607" />
            </Array>
          </mxGeometry>
        </mxCell>
        <mxCell id="BGpOXGxUT94xlGYrzpRG-99" value="diagnose" style="edgeLabel;html=1;align=center;verticalAlign=middle;resizable=0;points=[];" vertex="1" connectable="0" parent="BGpOXGxUT94xlGYrzpRG-98">
          <mxGeometry x="0.4265" y="-2" relative="1" as="geometry">
            <mxPoint x="27" y="-10" as="offset" />
          </mxGeometry>
        </mxCell>
        <mxCell id="BGpOXGxUT94xlGYrzpRG-100" value="&lt;b&gt;1&lt;/b&gt;..*" style="edgeLabel;html=1;align=center;verticalAlign=middle;resizable=0;points=[];fontSize=11;" vertex="1" connectable="0" parent="BGpOXGxUT94xlGYrzpRG-98">
          <mxGeometry x="-0.7448" y="-6" relative="1" as="geometry">
            <mxPoint x="10" y="14" as="offset" />
          </mxGeometry>
        </mxCell>
        <mxCell id="BGpOXGxUT94xlGYrzpRG-101" value="&lt;b&gt;1&lt;/b&gt;" style="edgeLabel;html=1;align=center;verticalAlign=middle;resizable=0;points=[];fontSize=11;" vertex="1" connectable="0" parent="BGpOXGxUT94xlGYrzpRG-98">
          <mxGeometry x="0.857" y="-8" relative="1" as="geometry">
            <mxPoint y="3" as="offset" />
          </mxGeometry>
        </mxCell>
        <mxCell id="BGpOXGxUT94xlGYrzpRG-102" value="" style="endArrow=none;html=1;rounded=0;strokeWidth=1;fillColor=#dae8fc;strokeColor=#6c8ebf;entryX=0.5;entryY=0;entryDx=0;entryDy=0;" edge="1" parent="1">
          <mxGeometry width="50" height="50" relative="1" as="geometry">
            <mxPoint x="647" y="850" as="sourcePoint" />
            <mxPoint x="551.835" y="850" as="targetPoint" />
            <Array as="points">
              <mxPoint x="647" y="826" />
              <mxPoint x="552" y="826" />
            </Array>
          </mxGeometry>
        </mxCell>
        <mxCell id="BGpOXGxUT94xlGYrzpRG-103" value="generate" style="edgeLabel;html=1;align=center;verticalAlign=middle;resizable=0;points=[];" vertex="1" connectable="0" parent="BGpOXGxUT94xlGYrzpRG-102">
          <mxGeometry x="0.4265" y="-2" relative="1" as="geometry">
            <mxPoint x="29" y="-7" as="offset" />
          </mxGeometry>
        </mxCell>
        <mxCell id="BGpOXGxUT94xlGYrzpRG-104" value="&lt;b&gt;1&lt;/b&gt;..*" style="edgeLabel;html=1;align=center;verticalAlign=middle;resizable=0;points=[];fontSize=11;" vertex="1" connectable="0" parent="BGpOXGxUT94xlGYrzpRG-102">
          <mxGeometry x="-0.6929" y="-4" relative="1" as="geometry">
            <mxPoint x="5" y="12" as="offset" />
          </mxGeometry>
        </mxCell>
        <mxCell id="BGpOXGxUT94xlGYrzpRG-105" value="&lt;b&gt;1&lt;/b&gt;" style="edgeLabel;html=1;align=center;verticalAlign=middle;resizable=0;points=[];fontSize=11;" vertex="1" connectable="0" parent="BGpOXGxUT94xlGYrzpRG-102">
          <mxGeometry x="0.7768" y="-7" relative="1" as="geometry">
            <mxPoint x="-1" y="7" as="offset" />
          </mxGeometry>
        </mxCell>
        <mxCell id="BGpOXGxUT94xlGYrzpRG-106" value="" style="endArrow=none;html=1;rounded=0;strokeWidth=1;fillColor=#dae8fc;strokeColor=#6c8ebf;entryX=0.5;entryY=0;entryDx=0;entryDy=0;" edge="1" parent="1">
          <mxGeometry width="50" height="50" relative="1" as="geometry">
            <mxPoint x="371" y="763" as="sourcePoint" />
            <mxPoint x="371" y="851" as="targetPoint" />
          </mxGeometry>
        </mxCell>
        <mxCell id="BGpOXGxUT94xlGYrzpRG-107" value="view" style="edgeLabel;html=1;align=center;verticalAlign=middle;resizable=0;points=[];" vertex="1" connectable="0" parent="BGpOXGxUT94xlGYrzpRG-106">
          <mxGeometry x="0.4265" y="-2" relative="1" as="geometry">
            <mxPoint x="17" y="-12" as="offset" />
          </mxGeometry>
        </mxCell>
        <mxCell id="BGpOXGxUT94xlGYrzpRG-108" value="&lt;b&gt;1&lt;/b&gt;" style="edgeLabel;html=1;align=center;verticalAlign=middle;resizable=0;points=[];fontSize=11;" vertex="1" connectable="0" parent="BGpOXGxUT94xlGYrzpRG-106">
          <mxGeometry x="-0.6929" y="-4" relative="1" as="geometry">
            <mxPoint x="10" y="-5" as="offset" />
          </mxGeometry>
        </mxCell>
        <mxCell id="BGpOXGxUT94xlGYrzpRG-109" value="&lt;b&gt;1..*&lt;/b&gt;" style="edgeLabel;html=1;align=center;verticalAlign=middle;resizable=0;points=[];fontSize=11;" vertex="1" connectable="0" parent="BGpOXGxUT94xlGYrzpRG-106">
          <mxGeometry x="0.7768" y="-7" relative="1" as="geometry">
            <mxPoint x="17" y="-1" as="offset" />
          </mxGeometry>
        </mxCell>
        <mxCell id="BGpOXGxUT94xlGYrzpRG-110" value="" style="endArrow=none;html=1;rounded=0;strokeWidth=1;fillColor=#dae8fc;strokeColor=#6c8ebf;entryX=0.751;entryY=1.048;entryDx=0;entryDy=0;entryPerimeter=0;exitX=0.853;exitY=1.013;exitDx=0;exitDy=0;exitPerimeter=0;" edge="1" parent="1">
          <mxGeometry width="50" height="50" relative="1" as="geometry">
            <mxPoint x="768.03558" y="537.04" as="sourcePoint" />
            <mxPoint x="431.144" y="1034.256" as="targetPoint" />
            <Array as="points">
              <mxPoint x="768" y="1043" />
              <mxPoint x="431" y="1043" />
            </Array>
          </mxGeometry>
        </mxCell>
        <mxCell id="BGpOXGxUT94xlGYrzpRG-111" value="prescribe" style="edgeLabel;html=1;align=center;verticalAlign=middle;resizable=0;points=[];" vertex="1" connectable="0" parent="BGpOXGxUT94xlGYrzpRG-110">
          <mxGeometry x="0.4265" y="-2" relative="1" as="geometry">
            <mxPoint x="-120" y="-7" as="offset" />
          </mxGeometry>
        </mxCell>
        <mxCell id="BGpOXGxUT94xlGYrzpRG-112" value="&lt;b&gt;1&lt;/b&gt;" style="edgeLabel;html=1;align=center;verticalAlign=middle;resizable=0;points=[];fontSize=11;" vertex="1" connectable="0" parent="BGpOXGxUT94xlGYrzpRG-110">
          <mxGeometry x="-0.6929" y="-4" relative="1" as="geometry">
            <mxPoint x="8" y="-124" as="offset" />
          </mxGeometry>
        </mxCell>
        <mxCell id="BGpOXGxUT94xlGYrzpRG-113" value="&lt;b&gt;1..*&lt;/b&gt;" style="edgeLabel;html=1;align=center;verticalAlign=middle;resizable=0;points=[];fontSize=11;" vertex="1" connectable="0" parent="BGpOXGxUT94xlGYrzpRG-110">
          <mxGeometry x="0.7768" y="-7" relative="1" as="geometry">
            <mxPoint x="-100" y="4" as="offset" />
          </mxGeometry>
        </mxCell>
        <mxCell id="BGpOXGxUT94xlGYrzpRG-114" value="" style="endArrow=none;html=1;rounded=0;strokeWidth=1;fillColor=#dae8fc;strokeColor=#6c8ebf;entryX=0.5;entryY=0;entryDx=0;entryDy=0;exitX=0.64;exitY=0.997;exitDx=0;exitDy=0;exitPerimeter=0;" edge="1" parent="1">
          <mxGeometry width="50" height="50" relative="1" as="geometry">
            <mxPoint x="537.8788" y="738.8320000000001" as="sourcePoint" />
            <mxPoint x="696.5" y="850" as="targetPoint" />
            <Array as="points">
              <mxPoint x="538" y="787" />
              <mxPoint x="698" y="787" />
            </Array>
          </mxGeometry>
        </mxCell>
        <mxCell id="BGpOXGxUT94xlGYrzpRG-115" value="view" style="edgeLabel;html=1;align=center;verticalAlign=middle;resizable=0;points=[];" vertex="1" connectable="0" parent="BGpOXGxUT94xlGYrzpRG-114">
          <mxGeometry x="0.4265" y="-2" relative="1" as="geometry">
            <mxPoint x="-66" y="-12" as="offset" />
          </mxGeometry>
        </mxCell>
        <mxCell id="BGpOXGxUT94xlGYrzpRG-116" value="&lt;b&gt;1&lt;/b&gt;" style="edgeLabel;html=1;align=center;verticalAlign=middle;resizable=0;points=[];fontSize=11;" vertex="1" connectable="0" parent="BGpOXGxUT94xlGYrzpRG-114">
          <mxGeometry x="-0.6929" y="-4" relative="1" as="geometry">
            <mxPoint x="10" y="-34" as="offset" />
          </mxGeometry>
        </mxCell>
        <mxCell id="BGpOXGxUT94xlGYrzpRG-117" value="&lt;b&gt;1..*&lt;/b&gt;" style="edgeLabel;html=1;align=center;verticalAlign=middle;resizable=0;points=[];fontSize=11;" vertex="1" connectable="0" parent="BGpOXGxUT94xlGYrzpRG-114">
          <mxGeometry x="0.7768" y="-7" relative="1" as="geometry">
            <mxPoint x="16" y="21" as="offset" />
          </mxGeometry>
        </mxCell>
        <mxCell id="BGpOXGxUT94xlGYrzpRG-118" value="" style="endArrow=none;html=1;rounded=0;strokeWidth=1;fillColor=#dae8fc;strokeColor=#6c8ebf;exitX=0.889;exitY=0.987;exitDx=0;exitDy=0;exitPerimeter=0;entryX=0.406;entryY=1.004;entryDx=0;entryDy=0;entryPerimeter=0;" edge="1" parent="1">
          <mxGeometry width="50" height="50" relative="1" as="geometry">
            <mxPoint x="777.8905400000003" y="535.96" as="sourcePoint" />
            <mxPoint x="230.99800000000005" y="1024.188" as="targetPoint" />
            <Array as="points">
              <mxPoint x="778" y="1059" />
              <mxPoint x="231" y="1059" />
            </Array>
          </mxGeometry>
        </mxCell>
        <mxCell id="BGpOXGxUT94xlGYrzpRG-119" value="send" style="edgeLabel;html=1;align=center;verticalAlign=middle;resizable=0;points=[];" vertex="1" connectable="0" parent="BGpOXGxUT94xlGYrzpRG-118">
          <mxGeometry x="0.4265" y="-2" relative="1" as="geometry">
            <mxPoint x="23" y="9" as="offset" />
          </mxGeometry>
        </mxCell>
        <mxCell id="BGpOXGxUT94xlGYrzpRG-120" value="&lt;b&gt;1&lt;/b&gt;" style="edgeLabel;html=1;align=center;verticalAlign=middle;resizable=0;points=[];fontSize=11;" vertex="1" connectable="0" parent="BGpOXGxUT94xlGYrzpRG-118">
          <mxGeometry x="-0.6929" y="-4" relative="1" as="geometry">
            <mxPoint x="9" y="-161" as="offset" />
          </mxGeometry>
        </mxCell>
        <mxCell id="BGpOXGxUT94xlGYrzpRG-121" value="&lt;b&gt;1..*&lt;/b&gt;" style="edgeLabel;html=1;align=center;verticalAlign=middle;resizable=0;points=[];fontSize=11;" vertex="1" connectable="0" parent="BGpOXGxUT94xlGYrzpRG-118">
          <mxGeometry x="0.7768" y="-7" relative="1" as="geometry">
            <mxPoint x="-100" y="-17" as="offset" />
          </mxGeometry>
        </mxCell>
        <mxCell id="BGpOXGxUT94xlGYrzpRG-122" value="" style="endArrow=none;html=1;rounded=0;strokeWidth=1;fillColor=#dae8fc;strokeColor=#6c8ebf;entryX=0.5;entryY=0;entryDx=0;entryDy=0;" edge="1" parent="1">
          <mxGeometry width="50" height="50" relative="1" as="geometry">
            <mxPoint x="261" y="763" as="sourcePoint" />
            <mxPoint x="261" y="851" as="targetPoint" />
          </mxGeometry>
        </mxCell>
        <mxCell id="BGpOXGxUT94xlGYrzpRG-123" value="view" style="edgeLabel;html=1;align=center;verticalAlign=middle;resizable=0;points=[];" vertex="1" connectable="0" parent="BGpOXGxUT94xlGYrzpRG-122">
          <mxGeometry x="0.4265" y="-2" relative="1" as="geometry">
            <mxPoint x="17" y="-12" as="offset" />
          </mxGeometry>
        </mxCell>
        <mxCell id="BGpOXGxUT94xlGYrzpRG-124" value="&lt;b&gt;1&lt;/b&gt;" style="edgeLabel;html=1;align=center;verticalAlign=middle;resizable=0;points=[];fontSize=11;" vertex="1" connectable="0" parent="BGpOXGxUT94xlGYrzpRG-122">
          <mxGeometry x="-0.6929" y="-4" relative="1" as="geometry">
            <mxPoint x="10" y="-5" as="offset" />
          </mxGeometry>
        </mxCell>
        <mxCell id="BGpOXGxUT94xlGYrzpRG-125" value="&lt;b&gt;1..*&lt;/b&gt;" style="edgeLabel;html=1;align=center;verticalAlign=middle;resizable=0;points=[];fontSize=11;" vertex="1" connectable="0" parent="BGpOXGxUT94xlGYrzpRG-122">
          <mxGeometry x="0.7768" y="-7" relative="1" as="geometry">
            <mxPoint x="17" y="-1" as="offset" />
          </mxGeometry>
        </mxCell>
        <mxCell id="BGpOXGxUT94xlGYrzpRG-126" value="" style="endArrow=none;html=1;rounded=0;strokeWidth=1;fillColor=#dae8fc;strokeColor=#6c8ebf;entryX=0.5;entryY=0;entryDx=0;entryDy=0;exitX=0.01;exitY=0.925;exitDx=0;exitDy=0;exitPerimeter=0;" edge="1" parent="1" source="BGpOXGxUT94xlGYrzpRG-63" target="BGpOXGxUT94xlGYrzpRG-4">
          <mxGeometry width="50" height="50" relative="1" as="geometry">
            <mxPoint x="188" y="759" as="sourcePoint" />
            <mxPoint x="391" y="871" as="targetPoint" />
            <Array as="points">
              <mxPoint x="97" y="758" />
            </Array>
          </mxGeometry>
        </mxCell>
        <mxCell id="BGpOXGxUT94xlGYrzpRG-127" value="send" style="edgeLabel;html=1;align=center;verticalAlign=middle;resizable=0;points=[];" vertex="1" connectable="0" parent="BGpOXGxUT94xlGYrzpRG-126">
          <mxGeometry x="0.4265" y="-2" relative="1" as="geometry">
            <mxPoint x="-13" as="offset" />
          </mxGeometry>
        </mxCell>
        <mxCell id="BGpOXGxUT94xlGYrzpRG-128" value="&lt;b&gt;1&lt;/b&gt;" style="edgeLabel;html=1;align=center;verticalAlign=middle;resizable=0;points=[];fontSize=11;" vertex="1" connectable="0" parent="BGpOXGxUT94xlGYrzpRG-126">
          <mxGeometry x="-0.6929" y="-4" relative="1" as="geometry">
            <mxPoint x="20" y="-5" as="offset" />
          </mxGeometry>
        </mxCell>
        <mxCell id="BGpOXGxUT94xlGYrzpRG-129" value="&lt;b&gt;1..*&lt;/b&gt;" style="edgeLabel;html=1;align=center;verticalAlign=middle;resizable=0;points=[];fontSize=11;" vertex="1" connectable="0" parent="BGpOXGxUT94xlGYrzpRG-126">
          <mxGeometry x="0.7768" y="-7" relative="1" as="geometry">
            <mxPoint x="-5" y="10" as="offset" />
          </mxGeometry>
        </mxCell>
        <mxCell id="BGpOXGxUT94xlGYrzpRG-130" value="" style="endArrow=none;html=1;rounded=0;strokeWidth=1;fillColor=#dae8fc;strokeColor=#6c8ebf;exitX=0.549;exitY=1.011;exitDx=0;exitDy=0;exitPerimeter=0;entryX=0.821;entryY=0.002;entryDx=0;entryDy=0;entryPerimeter=0;" edge="1" parent="1">
          <mxGeometry width="50" height="50" relative="1" as="geometry">
            <mxPoint x="687.4290000000001" y="764.8800000000001" as="sourcePoint" />
            <mxPoint x="301.1930000000002" y="850.348" as="targetPoint" />
            <Array as="points">
              <mxPoint x="687" y="804" />
              <mxPoint x="301" y="804" />
            </Array>
          </mxGeometry>
        </mxCell>
        <mxCell id="BGpOXGxUT94xlGYrzpRG-131" value="view" style="edgeLabel;html=1;align=center;verticalAlign=middle;resizable=0;points=[];" vertex="1" connectable="0" parent="BGpOXGxUT94xlGYrzpRG-130">
          <mxGeometry x="0.4265" y="-2" relative="1" as="geometry">
            <mxPoint x="73" y="-7" as="offset" />
          </mxGeometry>
        </mxCell>
        <mxCell id="BGpOXGxUT94xlGYrzpRG-132" value="&lt;b&gt;1&lt;/b&gt;" style="edgeLabel;html=1;align=center;verticalAlign=middle;resizable=0;points=[];fontSize=11;" vertex="1" connectable="0" parent="BGpOXGxUT94xlGYrzpRG-130">
          <mxGeometry x="-0.6929" y="-4" relative="1" as="geometry">
            <mxPoint x="27" y="-28" as="offset" />
          </mxGeometry>
        </mxCell>
        <mxCell id="BGpOXGxUT94xlGYrzpRG-133" value="&lt;b&gt;1..*&lt;/b&gt;" style="edgeLabel;html=1;align=center;verticalAlign=middle;resizable=0;points=[];fontSize=11;" vertex="1" connectable="0" parent="BGpOXGxUT94xlGYrzpRG-130">
          <mxGeometry x="0.7768" y="-7" relative="1" as="geometry">
            <mxPoint x="3" y="43" as="offset" />
          </mxGeometry>
        </mxCell>
        <mxCell id="BGpOXGxUT94xlGYrzpRG-134" value="" style="endArrow=none;html=1;rounded=0;strokeWidth=1;fillColor=#dae8fc;strokeColor=#6c8ebf;exitX=0.889;exitY=0.987;exitDx=0;exitDy=0;exitPerimeter=0;" edge="1" parent="1">
          <mxGeometry width="50" height="50" relative="1" as="geometry">
            <mxPoint x="791.8905400000003" y="535.96" as="sourcePoint" />
            <mxPoint x="73" y="1024" as="targetPoint" />
            <Array as="points">
              <mxPoint x="792" y="1075" />
              <mxPoint x="73" y="1070" />
            </Array>
          </mxGeometry>
        </mxCell>
        <mxCell id="BGpOXGxUT94xlGYrzpRG-135" value="view" style="edgeLabel;html=1;align=center;verticalAlign=middle;resizable=0;points=[];" vertex="1" connectable="0" parent="BGpOXGxUT94xlGYrzpRG-134">
          <mxGeometry x="0.4265" y="-2" relative="1" as="geometry">
            <mxPoint x="22" y="10" as="offset" />
          </mxGeometry>
        </mxCell>
        <mxCell id="BGpOXGxUT94xlGYrzpRG-136" value="&lt;b&gt;1&lt;/b&gt;" style="edgeLabel;html=1;align=center;verticalAlign=middle;resizable=0;points=[];fontSize=11;" vertex="1" connectable="0" parent="BGpOXGxUT94xlGYrzpRG-134">
          <mxGeometry x="-0.6929" y="-4" relative="1" as="geometry">
            <mxPoint x="9" y="-191" as="offset" />
          </mxGeometry>
        </mxCell>
        <mxCell id="BGpOXGxUT94xlGYrzpRG-137" value="&lt;b&gt;1..*&lt;/b&gt;" style="edgeLabel;html=1;align=center;verticalAlign=middle;resizable=0;points=[];fontSize=11;" vertex="1" connectable="0" parent="BGpOXGxUT94xlGYrzpRG-134">
          <mxGeometry x="0.7768" y="-7" relative="1" as="geometry">
            <mxPoint x="-111" y="-31" as="offset" />
          </mxGeometry>
        </mxCell>
        <mxCell id="BGpOXGxUT94xlGYrzpRG-138" value="" style="endArrow=none;html=1;rounded=0;strokeWidth=1;fillColor=#dae8fc;strokeColor=#6c8ebf;exitX=0.521;exitY=1.004;exitDx=0;exitDy=0;exitPerimeter=0;" edge="1" parent="1">
          <mxGeometry width="50" height="50" relative="1" as="geometry">
            <mxPoint x="742.2620599999998" y="537.3199999999999" as="sourcePoint" />
            <mxPoint x="385" y="530" as="targetPoint" />
            <Array as="points">
              <mxPoint x="742" y="590" />
              <mxPoint x="385" y="587" />
            </Array>
          </mxGeometry>
        </mxCell>
        <mxCell id="BGpOXGxUT94xlGYrzpRG-139" value="examine " style="edgeLabel;html=1;align=center;verticalAlign=middle;resizable=0;points=[];" vertex="1" connectable="0" parent="BGpOXGxUT94xlGYrzpRG-138">
          <mxGeometry x="0.4265" y="-2" relative="1" as="geometry">
            <mxPoint x="92" y="-7" as="offset" />
          </mxGeometry>
        </mxCell>
        <mxCell id="BGpOXGxUT94xlGYrzpRG-140" value="&lt;b&gt;1&lt;/b&gt;" style="edgeLabel;html=1;align=center;verticalAlign=middle;resizable=0;points=[];fontSize=11;" vertex="1" connectable="0" parent="BGpOXGxUT94xlGYrzpRG-138">
          <mxGeometry x="-0.6929" y="-4" relative="1" as="geometry">
            <mxPoint x="11" y="-42" as="offset" />
          </mxGeometry>
        </mxCell>
        <mxCell id="BGpOXGxUT94xlGYrzpRG-141" value="&lt;b&gt;1..*&lt;/b&gt;" style="edgeLabel;html=1;align=center;verticalAlign=middle;resizable=0;points=[];fontSize=11;" vertex="1" connectable="0" parent="BGpOXGxUT94xlGYrzpRG-138">
          <mxGeometry x="0.7768" y="-7" relative="1" as="geometry">
            <mxPoint x="2" y="-43" as="offset" />
          </mxGeometry>
        </mxCell>
        <mxCell id="BGpOXGxUT94xlGYrzpRG-142" value="" style="endArrow=none;html=1;rounded=0;strokeWidth=1;fillColor=#dae8fc;strokeColor=#6c8ebf;entryX=1;entryY=0.822;entryDx=0;entryDy=0;entryPerimeter=0;exitX=0.121;exitY=1.003;exitDx=0;exitDy=0;exitPerimeter=0;" edge="1" parent="1" source="BGpOXGxUT94xlGYrzpRG-29" target="BGpOXGxUT94xlGYrzpRG-24">
          <mxGeometry width="50" height="50" relative="1" as="geometry">
            <mxPoint x="514" y="540" as="sourcePoint" />
            <mxPoint x="201" y="380" as="targetPoint" />
            <Array as="points">
              <mxPoint x="510" y="550" />
              <mxPoint x="210" y="550" />
              <mxPoint x="210" y="380" />
            </Array>
          </mxGeometry>
        </mxCell>
        <mxCell id="BGpOXGxUT94xlGYrzpRG-143" value="perform" style="edgeLabel;html=1;align=center;verticalAlign=middle;resizable=0;points=[];" vertex="1" connectable="0" parent="BGpOXGxUT94xlGYrzpRG-142">
          <mxGeometry x="0.4265" y="-2" relative="1" as="geometry">
            <mxPoint x="19" y="-90" as="offset" />
          </mxGeometry>
        </mxCell>
        <mxCell id="BGpOXGxUT94xlGYrzpRG-144" value="&lt;b&gt;1&lt;/b&gt;" style="edgeLabel;html=1;align=center;verticalAlign=middle;resizable=0;points=[];fontSize=11;" vertex="1" connectable="0" parent="BGpOXGxUT94xlGYrzpRG-142">
          <mxGeometry x="-0.6929" y="-4" relative="1" as="geometry">
            <mxPoint x="68" y="-2" as="offset" />
          </mxGeometry>
        </mxCell>
        <mxCell id="BGpOXGxUT94xlGYrzpRG-145" value="&lt;b&gt;1..*&lt;/b&gt;" style="edgeLabel;html=1;align=center;verticalAlign=middle;resizable=0;points=[];fontSize=11;" vertex="1" connectable="0" parent="BGpOXGxUT94xlGYrzpRG-142">
          <mxGeometry x="0.7768" y="-7" relative="1" as="geometry">
            <mxPoint x="-15" y="-48" as="offset" />
          </mxGeometry>
        </mxCell>
        <mxCell id="BGpOXGxUT94xlGYrzpRG-146" value="" style="endArrow=none;html=1;rounded=0;strokeWidth=1;fillColor=#dae8fc;strokeColor=#6c8ebf;entryX=0.999;entryY=0.882;entryDx=0;entryDy=0;entryPerimeter=0;exitX=0.225;exitY=1.025;exitDx=0;exitDy=0;exitPerimeter=0;" edge="1" parent="1" source="BGpOXGxUT94xlGYrzpRG-29" target="BGpOXGxUT94xlGYrzpRG-22">
          <mxGeometry width="50" height="50" relative="1" as="geometry">
            <mxPoint x="536" y="567" as="sourcePoint" />
            <mxPoint x="201.02600000000007" y="507" as="targetPoint" />
            <Array as="points">
              <mxPoint x="527" y="572" />
            </Array>
          </mxGeometry>
        </mxCell>
        <mxCell id="BGpOXGxUT94xlGYrzpRG-147" value="perform" style="edgeLabel;html=1;align=center;verticalAlign=middle;resizable=0;points=[];" vertex="1" connectable="0" parent="BGpOXGxUT94xlGYrzpRG-146">
          <mxGeometry x="0.4265" y="-2" relative="1" as="geometry">
            <mxPoint x="7" y="-7" as="offset" />
          </mxGeometry>
        </mxCell>
        <mxCell id="BGpOXGxUT94xlGYrzpRG-148" value="&lt;b&gt;1&lt;/b&gt;" style="edgeLabel;html=1;align=center;verticalAlign=middle;resizable=0;points=[];fontSize=11;" vertex="1" connectable="0" parent="BGpOXGxUT94xlGYrzpRG-146">
          <mxGeometry x="-0.6929" y="-4" relative="1" as="geometry">
            <mxPoint x="31" y="-24" as="offset" />
          </mxGeometry>
        </mxCell>
        <mxCell id="BGpOXGxUT94xlGYrzpRG-149" value="&lt;b&gt;1..*&lt;/b&gt;" style="edgeLabel;html=1;align=center;verticalAlign=middle;resizable=0;points=[];fontSize=11;" vertex="1" connectable="0" parent="BGpOXGxUT94xlGYrzpRG-146">
          <mxGeometry x="0.7768" y="-7" relative="1" as="geometry">
            <mxPoint x="-33" y="-1" as="offset" />
          </mxGeometry>
        </mxCell>
        <mxCell id="BGpOXGxUT94xlGYrzpRG-150" value="" style="endArrow=none;html=1;rounded=0;strokeWidth=1;entryX=1;entryY=0.5;entryDx=0;entryDy=0;exitX=-0.007;exitY=0.154;exitDx=0;exitDy=0;fillColor=#dae8fc;strokeColor=#6c8ebf;exitPerimeter=0;" edge="1" parent="1" source="BGpOXGxUT94xlGYrzpRG-27" target="BGpOXGxUT94xlGYrzpRG-20">
          <mxGeometry width="50" height="50" relative="1" as="geometry">
            <mxPoint x="345" y="281" as="sourcePoint" />
            <mxPoint x="183" y="181.94000000000005" as="targetPoint" />
            <Array as="points">
              <mxPoint x="460" y="440" />
              <mxPoint x="460" y="137" />
            </Array>
          </mxGeometry>
        </mxCell>
        <mxCell id="BGpOXGxUT94xlGYrzpRG-151" value="perform" style="edgeLabel;html=1;align=center;verticalAlign=middle;resizable=0;points=[];" vertex="1" connectable="0" parent="BGpOXGxUT94xlGYrzpRG-150">
          <mxGeometry x="0.4265" y="-2" relative="1" as="geometry">
            <mxPoint x="19" y="56" as="offset" />
          </mxGeometry>
        </mxCell>
        <mxCell id="BGpOXGxUT94xlGYrzpRG-152" value="&lt;b&gt;1&lt;/b&gt;" style="edgeLabel;html=1;align=center;verticalAlign=middle;resizable=0;points=[];fontSize=11;" vertex="1" connectable="0" parent="BGpOXGxUT94xlGYrzpRG-150">
          <mxGeometry x="-0.7448" y="-6" relative="1" as="geometry">
            <mxPoint x="18" y="13" as="offset" />
          </mxGeometry>
        </mxCell>
        <mxCell id="BGpOXGxUT94xlGYrzpRG-153" value="&lt;b&gt;1..*&lt;/b&gt;" style="edgeLabel;html=1;align=center;verticalAlign=middle;resizable=0;points=[];fontSize=11;" vertex="1" connectable="0" parent="BGpOXGxUT94xlGYrzpRG-150">
          <mxGeometry x="0.857" y="-8" relative="1" as="geometry">
            <mxPoint x="-17" y="-1" as="offset" />
          </mxGeometry>
        </mxCell>
        <mxCell id="BGpOXGxUT94xlGYrzpRG-154" value="" style="endArrow=none;html=1;rounded=0;strokeWidth=1;fillColor=#dae8fc;strokeColor=#6c8ebf;entryX=0.75;entryY=0;entryDx=0;entryDy=0;exitX=0.143;exitY=0.982;exitDx=0;exitDy=0;exitPerimeter=0;" edge="1" parent="1">
          <mxGeometry width="50" height="50" relative="1" as="geometry">
            <mxPoint x="313.02" y="529.992" as="sourcePoint" />
            <mxPoint x="123.5" y="850" as="targetPoint" />
            <Array as="points">
              <mxPoint x="313" y="640" />
              <mxPoint x="313" y="800" />
              <mxPoint x="124" y="800" />
            </Array>
          </mxGeometry>
        </mxCell>
        <mxCell id="BGpOXGxUT94xlGYrzpRG-155" value="has" style="edgeLabel;html=1;align=center;verticalAlign=middle;resizable=0;points=[];" vertex="1" connectable="0" parent="BGpOXGxUT94xlGYrzpRG-154">
          <mxGeometry x="0.4265" y="-2" relative="1" as="geometry">
            <mxPoint x="-27" y="11" as="offset" />
          </mxGeometry>
        </mxCell>
        <mxCell id="BGpOXGxUT94xlGYrzpRG-156" value="&lt;b&gt;1&lt;/b&gt;" style="edgeLabel;html=1;align=center;verticalAlign=middle;resizable=0;points=[];fontSize=11;" vertex="1" connectable="0" parent="BGpOXGxUT94xlGYrzpRG-154">
          <mxGeometry x="-0.7448" y="-6" relative="1" as="geometry">
            <mxPoint x="11" y="-56" as="offset" />
          </mxGeometry>
        </mxCell>
        <mxCell id="BGpOXGxUT94xlGYrzpRG-157" value="&lt;b&gt;1&lt;/b&gt;..*" style="edgeLabel;html=1;align=center;verticalAlign=middle;resizable=0;points=[];fontSize=11;" vertex="1" connectable="0" parent="BGpOXGxUT94xlGYrzpRG-154">
          <mxGeometry x="0.857" y="-8" relative="1" as="geometry">
            <mxPoint x="16" y="28" as="offset" />
          </mxGeometry>
        </mxCell>
      </root>
    </mxGraphModel>
  </diagram>
</mxfile>
